<svg xmlns="http://www.w3.org/2000/svg" version="1.1" width="24" height="24" enable-background="new 0 0 24 24" xml:space="preserve"><rect id="backgroundrect" width="100%" height="100%" x="0" y="0" fill="none" stroke="none"/>
 
<g class="currentLayer"><title>Layer 1</title><path fill="#AAAAAA" d="m14.517193150519546,15.006440108777776 c0,1.4102525703437265 -1.1411661755017615,2.5513393132790556 -2.5513396879609758,2.5513393132790556 c-1.4089770282038334,0 -2.5513393132790556,-1.1411661755017615 -2.5513393132790556,-2.5513393132790556 s1.142362285075223,-2.5513396879609758 2.5513393132790556,-2.5513396879609758 c1.4102529450256442,0 2.5513396879609758,1.1411661755017615 2.5513396879609758,2.5513396879609758 zm-8.422609492570352,-4.910850185932665 l1.9558409812689082,1.6394745577183338 c1.9508973447916045,-2.3296120882928637 5.886258913072968,-2.3296120882928637 7.834685022464459,0.0024716517133552872 l1.9583924818619365,-1.6344518217251922 c-1.4625553766768018,-1.7491025316957116 -3.6040063693177937,-2.750662890974835 -5.877568832106251,-2.750662890974835 c-2.2723663948463186,0 -4.412541803716094,0.9990887075657683 -5.8713496534890535,2.7431685032683375 zm-3.584073999058819,-3.6550332588290595 l1.8911005254339477,1.7141813860237418 c1.9308858750167905,-2.132760536992357 4.687767569926906,-3.3536563184239907 7.564243236602926,-3.3536563184239907 c2.875279973415801,0 5.630886126186022,1.2208957814316348 7.561851433769246,3.3486332077489323 l1.8886289153519167,-1.7141810113418234 c-2.4142845813362053,-2.6609676619383498 -5.857636087165357,-4.185791468054841 -9.450400500241487,-4.185791468054841 c-3.5953159136691584,0 -7.041139071211665,1.529846958422874 -9.455423610916547,4.190814245679307 z" id="svg_1" class=""/></g></svg>