<svg xmlns="http://www.w3.org/2000/svg" version="1.1" width="12.371517036639176" height="11.247678024426108" enable-background="new 0 0 24 24" xml:space="preserve"><rect id="backgroundrect" width="100%" height="100%" x="0" y="0" fill="none" stroke="none" class=""/>
 
<g class="currentLayer"><title>Layer 1</title><path fill="#AAAAAA" d="m7.849040936592681,8.339341743820187 c0,0.9219140333931308 -0.7460061649610907,1.6678682714871866 -1.6678685164252411,1.6678682714871866 c-0.9210801826179735,0 -1.6678682714871866,-0.7460061649610907 -1.6678682714871866,-1.6678682714871866 s0.7467880888692174,-1.6678685164252411 1.6678682714871866,-1.6678685164252411 c0.921914278331184,0 1.6678685164252411,0.7460061649610907 1.6678685164252411,1.6678685164252411 zm-5.506050513418472,-3.2103339483360114 l1.278577529752501,1.0717616361324114 c1.275345762663213,-1.5229201646028558 3.8479807165497357,-1.5229201646028558 5.121710976683055,0.001615774683287434 l1.280245503456215,-1.0684781598988033 c-0.9561055620301292,-1.1434279247019596 -2.356020558432644,-1.7981706069185461 -3.8422998138781064,-1.7981706069185461 c-1.4854973587526747,0 -2.884578477164693,0.6531269075333007 -3.8382341960136586,1.7932713560016516 zm-2.342990316724907,-2.3893779913564286 l1.2362552280473782,1.1205991811604354 c1.2622638118111558,-1.3942338487928363 3.0644997916560968,-2.192361062230891 4.944917058455428,-2.192361062230891 c1.8796356150445956,0 3.6810377441143776,0.7981272134380611 4.943353482792565,2.1890773410592317 l1.2346394805794252,-1.1205989362223816 c-1.5782724902930076,-1.739534804994786 -3.829269327232315,-2.7363466491087016 -6.177940764351567,-2.7363466491087016 c-2.3503394108229627,0 -4.6029520224455585,1.000095592500913 -6.181224485523223,2.739630152557647 z" id="svg_1" class=""/></g></svg>